<svg width="32" height="32" viewBox="0 0 32 32" fill="none" xmlns="http://www.w3.org/2000/svg">
<rect width="32" height="32" rx="6" fill="white"/>
<g clip-path="url(#clip0_582_2565)">
<mask id="mask0_582_2565" style="mask-type:luminance" maskUnits="userSpaceOnUse" x="5" y="4" width="22" height="24">
<path d="M5 4H26.5412V27.2716H5V4Z" fill="white"/>
</mask>
<g mask="url(#mask0_582_2565)">
<mask id="mask1_582_2565" style="mask-type:luminance" maskUnits="userSpaceOnUse" x="3" y="-1" width="28" height="32">
<path d="M3.2263 21.1997L16.9642 -0.354004L30.3809 9.12104L16.6409 30.6748L3.2263 21.1997Z" fill="white"/>
</mask>
<g mask="url(#mask1_582_2565)">
<mask id="mask2_582_2565" style="mask-type:luminance" maskUnits="userSpaceOnUse" x="3" y="-1" width="28" height="32">
<path d="M3.2263 21.1997L16.9642 -0.354004L30.3809 9.12104L16.6409 30.6748L3.2263 21.1997Z" fill="white"/>
</mask>
<g mask="url(#mask2_582_2565)">
<path d="M24.4443 18.095C21.849 19.2254 19.1829 21.0319 16.9309 23.1832C15.8127 24.2532 14.8229 25.3813 13.9925 26.5351L13.5696 27.1248L11.8047 22.9618C11.023 23.5143 9.30692 24.4723 7.47786 23.8686C6.58991 23.5772 6.00089 23.104 5.67317 22.4234C5.24358 21.533 4.66785 18.9504 6.99735 16.9062C8.70019 15.2793 11.3995 14.9017 11.9619 14.8387C12.1457 14.7175 12.3118 14.5847 12.469 14.4331C13.1001 13.8318 13.4743 13.0206 13.9106 12.0836C14.5306 10.7457 15.3034 9.07678 17.1368 7.32395C17.3627 7.10717 17.6041 6.89273 17.8522 6.68296C20.0222 4.85088 21.756 4.19124 23.1532 4.66208C23.7733 4.86953 25.3809 6.01865 25.9544 8.19571C26.2844 9.34949 25.9345 10.5709 25.3123 11.7969C25.0178 12.375 24.4531 13.2724 23.4212 14.2583C23.14 14.5264 22.8853 14.7432 22.6926 14.8993L24.9513 17.8735L24.4443 18.095Z" fill="white"/>
</g>
</g>
</g>
<mask id="mask3_582_2565" style="mask-type:luminance" maskUnits="userSpaceOnUse" x="5" y="4" width="21" height="23">
<path d="M5.56687 4.59668H25.9743V26.6749H5.56687V4.59668Z" fill="white"/>
</mask>
<g mask="url(#mask3_582_2565)">
<mask id="mask4_582_2565" style="mask-type:luminance" maskUnits="userSpaceOnUse" x="3" y="-1" width="28" height="32">
<path d="M3.2263 21.1995L16.9642 -0.354248L30.3809 9.1208L16.6409 30.6745L3.2263 21.1995Z" fill="white"/>
</mask>
<g mask="url(#mask4_582_2565)">
<mask id="mask5_582_2565" style="mask-type:luminance" maskUnits="userSpaceOnUse" x="3" y="-1" width="28" height="32">
<path d="M3.2263 21.1995L16.9642 -0.354248L30.3809 9.1208L16.6409 30.6745L3.2263 21.1995Z" fill="white"/>
</mask>
<g mask="url(#mask5_582_2565)">
<path d="M25.3544 8.33549C25.7131 9.58718 25.3964 10.7736 24.8428 11.7782C23.8508 13.5823 22.0948 14.8107 22.0948 14.8107L24.2803 17.6893C23.2773 18.1252 22.2654 18.6613 21.2689 19.2767C18.3703 21.0691 15.6178 23.5469 13.6603 26.267L11.9708 22.2835C11.9708 22.2835 9.84279 24.1925 7.59744 23.449C6.1714 22.9781 5.33437 21.4048 6.05846 18.9876C7.12357 15.7803 12.1014 15.2652 12.1014 15.2652C14.5815 13.7175 13.9216 10.5661 18.1156 7.02786C22.2941 3.50124 24.3557 4.83917 25.3544 8.33549Z" fill="#F97316"/>
</g>
</g>
</g>
<mask id="mask6_582_2565" style="mask-type:luminance" maskUnits="userSpaceOnUse" x="7" y="20" width="5" height="4">
<path d="M7.26749 20.7078H11.8025V23.6913H7.26749V20.7078Z" fill="white"/>
</mask>
<g mask="url(#mask6_582_2565)">
<mask id="mask7_582_2565" style="mask-type:luminance" maskUnits="userSpaceOnUse" x="3" y="-1" width="28" height="32">
<path d="M3.2263 21.1997L16.9642 -0.354004L30.3809 9.12104L16.6409 30.6748L3.2263 21.1997Z" fill="white"/>
</mask>
<g mask="url(#mask7_582_2565)">
<mask id="mask8_582_2565" style="mask-type:luminance" maskUnits="userSpaceOnUse" x="3" y="-1" width="28" height="32">
<path d="M3.2263 21.1997L16.9642 -0.354004L30.3809 9.12104L16.6409 30.6748L3.2263 21.1997Z" fill="white"/>
</mask>
<g mask="url(#mask8_582_2565)">
<path d="M11.7117 22.3535C11.7117 22.3535 10.0155 23.2462 9.01462 23.1366C7.98716 23.0225 7.58414 22.5306 7.78344 22.512C7.98274 22.4957 8.95705 22.8173 9.39771 22.3395C9.84058 21.8594 8.69576 21.526 9.24049 21.3489C9.783 21.1718 10.5669 21.335 11.0651 21.6029C11.5611 21.8687 11.7117 22.3535 11.7117 22.3535Z" fill="#F97316"/>
</g>
</g>
</g>
<mask id="mask9_582_2565" style="mask-type:luminance" maskUnits="userSpaceOnUse" x="13" y="9" width="5" height="6">
<path d="M13.5031 9.37036H17.4712V14.7407H13.5031V9.37036Z" fill="white"/>
</mask>
<g mask="url(#mask9_582_2565)">
<mask id="mask10_582_2565" style="mask-type:luminance" maskUnits="userSpaceOnUse" x="3" y="-1" width="28" height="32">
<path d="M3.2263 21.1995L16.9642 -0.354248L30.3809 9.1208L16.6409 30.6745L3.2263 21.1995Z" fill="white"/>
</mask>
<g mask="url(#mask10_582_2565)">
<mask id="mask11_582_2565" style="mask-type:luminance" maskUnits="userSpaceOnUse" x="3" y="-1" width="28" height="32">
<path d="M3.2263 21.1995L16.9642 -0.354248L30.3809 9.1208L16.6409 30.6745L3.2263 21.1995Z" fill="white"/>
</mask>
<g mask="url(#mask11_582_2565)">
<path d="M13.5142 14.47C13.5142 14.47 14.6059 13.6728 15.3455 12.1298C16.0851 10.5867 16.7715 9.63107 17.0815 9.99235C17.3938 10.3513 17.4159 11.286 16.2689 12.6799C15.1218 14.0761 13.5142 14.47 13.5142 14.47Z" fill="#F97316"/>
</g>
</g>
</g>
<mask id="mask12_582_2565" style="mask-type:luminance" maskUnits="userSpaceOnUse" x="13" y="8" width="13" height="12">
<path d="M13.5031 8.77368H25.4074V19.5144H13.5031V8.77368Z" fill="white"/>
</mask>
<g mask="url(#mask12_582_2565)">
<mask id="mask13_582_2565" style="mask-type:luminance" maskUnits="userSpaceOnUse" x="3" y="-1" width="28" height="32">
<path d="M3.2263 21.1997L16.9642 -0.354004L30.3809 9.12104L16.6409 30.6748L3.2263 21.1997Z" fill="white"/>
</mask>
<g mask="url(#mask13_582_2565)">
<mask id="mask14_582_2565" style="mask-type:luminance" maskUnits="userSpaceOnUse" x="3" y="-1" width="28" height="32">
<path d="M3.2263 21.1997L16.9642 -0.354004L30.3809 9.12104L16.6409 30.6748L3.2263 21.1997Z" fill="white"/>
</mask>
<g mask="url(#mask14_582_2565)">
<path d="M25.0576 10.235C25.0532 10.27 24.938 11.186 24.8428 11.7804C23.8486 13.5822 22.0948 14.8105 22.0948 14.8105L24.2803 17.6891C23.2773 18.1251 22.2654 18.6611 21.2689 19.2765C21.4305 18.9245 21.4726 18.4817 21.2357 17.9433C20.5248 16.3396 19.7564 15.624 19.7564 15.624C19.7564 15.624 18.8796 17.7521 17.6528 18.6029C16.4371 19.4466 13.7777 19.1343 13.7356 19.1297C13.7578 19.1157 15.0022 18.4001 15.578 17.7707C16.1581 17.1345 16.1581 17.1345 16.1581 17.1345C15.2082 16.7475 14.3269 16.3536 14.8583 15.8012C14.8583 15.8012 17.8654 16.2278 20.2547 13.0554C22.644 9.88537 21.7826 8.53812 22.9253 8.81317C24.0677 9.08821 23.4367 12.0251 24.0878 11.6452C24.7276 11.2699 25.0465 10.27 25.0576 10.235Z" fill="#F97316"/>
</g>
</g>
</g>
<mask id="mask15_582_2565" style="mask-type:luminance" maskUnits="userSpaceOnUse" x="10" y="12" width="6" height="4">
<path d="M10.6687 12.9504H15.7706V15.934H10.6687V12.9504Z" fill="white"/>
</mask>
<g mask="url(#mask15_582_2565)">
<mask id="mask16_582_2565" style="mask-type:luminance" maskUnits="userSpaceOnUse" x="3" y="-1" width="28" height="32">
<path d="M3.2263 21.1995L16.9642 -0.354248L30.3809 9.1208L16.6409 30.6745L3.2263 21.1995Z" fill="white"/>
</mask>
<g mask="url(#mask16_582_2565)">
<mask id="mask17_582_2565" style="mask-type:luminance" maskUnits="userSpaceOnUse" x="3" y="-1" width="28" height="32">
<path d="M3.2263 21.1995L16.9642 -0.354248L30.3809 9.1208L16.6409 30.6745L3.2263 21.1995Z" fill="white"/>
</mask>
<g mask="url(#mask17_582_2565)">
<path d="M10.6776 15.4865C10.6776 15.4865 12.3494 15.4213 13.6581 14.9038C14.969 14.384 15.5802 13.2302 15.5802 13.2302C15.5802 13.2302 14.4154 14.0973 13.5142 14.4703C12.6129 14.8432 12.4092 14.8735 12.4092 14.8735L10.6776 15.4865Z" fill="white"/>
</g>
</g>
</g>
<mask id="mask18_582_2565" style="mask-type:luminance" maskUnits="userSpaceOnUse" x="20" y="13" width="4" height="3">
<path d="M20.8725 13.5474H23.14V15.9342H20.8725V13.5474Z" fill="white"/>
</mask>
<g mask="url(#mask18_582_2565)">
<mask id="mask19_582_2565" style="mask-type:luminance" maskUnits="userSpaceOnUse" x="3" y="-1" width="28" height="32">
<path d="M3.2263 21.1997L16.9642 -0.354004L30.3809 9.12104L16.6409 30.6748L3.2263 21.1997Z" fill="white"/>
</mask>
<g mask="url(#mask19_582_2565)">
<mask id="mask20_582_2565" style="mask-type:luminance" maskUnits="userSpaceOnUse" x="3" y="-1" width="28" height="32">
<path d="M3.2263 21.1997L16.9642 -0.354004L30.3809 9.12104L16.6409 30.6748L3.2263 21.1997Z" fill="white"/>
</mask>
<g mask="url(#mask20_582_2565)">
<path d="M21.4106 13.5637C21.4438 13.8481 22.0926 14.7874 22.6041 15.4774L22.6926 14.8993C22.3074 14.4168 21.9907 13.9809 21.7272 13.5824L21.4106 13.5637Z" fill="white"/>
</g>
</g>
</g>
<mask id="mask21_582_2565" style="mask-type:luminance" maskUnits="userSpaceOnUse" x="15" y="9" width="9" height="8">
<path d="M15.7706 9.9668H23.14V16.5305H15.7706V9.9668Z" fill="white"/>
</mask>
<g mask="url(#mask21_582_2565)">
<mask id="mask22_582_2565" style="mask-type:luminance" maskUnits="userSpaceOnUse" x="3" y="-1" width="28" height="32">
<path d="M3.2263 21.1991L16.9642 -0.354492L30.3809 9.12055L16.6409 30.6742L3.2263 21.1991Z" fill="white"/>
</mask>
<g mask="url(#mask22_582_2565)">
<mask id="mask23_582_2565" style="mask-type:luminance" maskUnits="userSpaceOnUse" x="3" y="-1" width="28" height="32">
<path d="M3.2263 21.1991L16.9642 -0.354492L30.3809 9.12055L16.6409 30.6742L3.2263 21.1991Z" fill="white"/>
</mask>
<g mask="url(#mask23_582_2565)">
<path d="M23.0625 10.2463C23.0625 10.2463 23.1267 12.0691 20.7308 14.0923C18.3348 16.1155 16.2999 16.4442 16.2999 16.4442C16.2999 16.4442 18.4168 16.5187 20.733 14.8172C22.1657 13.7147 21.7848 14.0037 22.4868 12.9991C23.1887 11.9945 23.0625 10.2463 23.0625 10.2463Z" fill="white"/>
</g>
</g>
</g>
<mask id="mask24_582_2565" style="mask-type:luminance" maskUnits="userSpaceOnUse" x="13" y="15" width="6" height="6">
<path d="M13.5031 15.3374H18.605V20.1111H13.5031V15.3374Z" fill="white"/>
</mask>
<g mask="url(#mask24_582_2565)">
<mask id="mask25_582_2565" style="mask-type:luminance" maskUnits="userSpaceOnUse" x="3" y="-1" width="28" height="32">
<path d="M3.2263 21.1997L16.9642 -0.354004L30.3809 9.12104L16.6409 30.6748L3.2263 21.1997Z" fill="white"/>
</mask>
<g mask="url(#mask25_582_2565)">
<mask id="mask26_582_2565" style="mask-type:luminance" maskUnits="userSpaceOnUse" x="3" y="-1" width="28" height="32">
<path d="M3.2263 21.1997L16.9642 -0.354004L30.3809 9.12104L16.6409 30.6748L3.2263 21.1997Z" fill="white"/>
</mask>
<g mask="url(#mask26_582_2565)">
<path d="M17.5797 16.1719C17.0882 17.6356 15.4075 19.1298 13.5939 19.5144C13.5939 19.5144 14.3091 19.7614 15.8858 18.92C17.4646 18.0762 18.3703 15.8782 18.3703 15.8782L17.5797 16.1719Z" fill="white"/>
</g>
</g>
</g>
<mask id="mask27_582_2565" style="mask-type:luminance" maskUnits="userSpaceOnUse" x="9" y="21" width="4" height="3">
<path d="M9.53499 21.3044H12.3694V23.0946H9.53499V21.3044Z" fill="white"/>
</mask>
<g mask="url(#mask27_582_2565)">
<mask id="mask28_582_2565" style="mask-type:luminance" maskUnits="userSpaceOnUse" x="3" y="-1" width="28" height="32">
<path d="M3.22629 21.1995L16.9642 -0.354248L30.3809 9.1208L16.6409 30.6745L3.22629 21.1995Z" fill="white"/>
</mask>
<g mask="url(#mask28_582_2565)">
<mask id="mask29_582_2565" style="mask-type:luminance" maskUnits="userSpaceOnUse" x="3" y="-1" width="28" height="32">
<path d="M3.22629 21.1995L16.9642 -0.354248L30.3809 9.1208L16.6409 30.6745L3.22629 21.1995Z" fill="white"/>
</mask>
<g mask="url(#mask29_582_2565)">
<path d="M12.1457 22.8194C12.128 22.6912 12.0461 22.2786 11.7914 21.9826C11.5368 21.6866 10.0886 21.5537 10.0886 21.5537C10.0886 21.5537 11.043 21.9149 11.3486 22.162C11.6541 22.4091 11.8047 22.9616 11.8047 22.9616L12.1457 22.8194Z" fill="white"/>
</g>
</g>
</g>
</g>
<defs>
<clipPath id="clip0_582_2565">
<rect width="22" height="24" fill="white" transform="translate(5 4)"/>
</clipPath>
</defs>
</svg>
