<svg width="167" height="40" viewBox="0 0 167 40" fill="none" xmlns="http://www.w3.org/2000/svg">
<path d="M19.9447 23.7796C20.5544 22.904 21.379 22.2436 22.4184 21.7953C23.4636 21.3411 24.6656 21.114 26.0302 21.114V25.9909C25.4553 25.9431 25.072 25.9192 24.8804 25.9192C23.4084 25.9192 22.2558 26.3436 21.4196 27.1863C20.5893 28.032 20.177 29.302 20.177 30.9994V39.5937H15.0438V21.377H19.9447V23.7796Z" fill="#1B2123"/>
<path d="M44.0466 30.5571C44.0466 30.6228 44.0147 31.095 43.9537 31.9795H30.5634C30.8014 33.1031 31.3705 33.9966 32.2705 34.657C33.1764 35.3115 34.2942 35.6372 35.6268 35.6372C36.5472 35.6372 37.363 35.4998 38.0773 35.2189C38.7886 34.932 39.4535 34.4837 40.0748 33.8681L42.8039 36.9162C41.1374 38.8855 38.7044 39.8687 35.4991 39.8687C33.5016 39.8687 31.7363 39.4712 30.2033 38.6733C28.6704 37.8695 27.4858 36.7578 26.6496 35.3384C25.8193 33.913 25.407 32.2963 25.407 30.4854C25.407 28.7013 25.8164 27.0966 26.638 25.6682C27.4568 24.2338 28.5833 23.1192 30.0175 22.3213C31.4576 21.5174 33.0632 21.114 34.8371 21.114C36.5704 21.114 38.1382 21.4965 39.5406 22.2615C40.9487 23.0265 42.052 24.1262 42.8504 25.5606C43.6459 26.995 44.0466 28.6625 44.0466 30.5571ZM34.872 25.1064C33.7106 25.1064 32.7351 25.4471 31.9454 26.1224C31.1556 26.8008 30.6737 27.7242 30.5053 28.8956H39.2154C39.0354 27.7481 38.5534 26.8336 37.7637 26.1463C36.9798 25.453 36.0159 25.1064 34.872 25.1064Z" fill="#1B2123"/>
<path d="M50.9188 39.8687C49.4555 39.8687 48.0183 39.6804 46.6102 39.3069C45.2079 38.9333 44.093 38.4642 43.2655 37.8964L44.9727 34.1072C45.7624 34.6272 46.7147 35.0485 47.8296 35.3742C48.9503 35.703 50.0478 35.8643 51.1162 35.8643C53.2908 35.8643 54.3796 35.3145 54.3796 34.2148C54.3796 33.6978 54.0805 33.3273 53.4854 33.1031C52.896 32.873 51.9872 32.6788 50.7562 32.5174C49.3074 32.2963 48.1112 32.0363 47.1676 31.7405C46.2298 31.4476 45.414 30.9276 44.7172 30.1865C44.0262 29.4395 43.6836 28.3756 43.6836 26.995C43.6836 25.8475 44.0088 24.8285 44.6591 23.935C45.3095 23.0445 46.2531 22.3512 47.4928 21.8551C48.7296 21.362 50.1929 21.114 51.8827 21.114C53.1282 21.114 54.3709 21.2575 55.6106 21.5443C56.8474 21.8252 57.8752 22.2107 58.6882 22.7038L56.981 26.4571C55.4248 25.5576 53.7234 25.1064 51.8827 25.1064C50.7823 25.1064 49.9578 25.2678 49.409 25.5845C48.8574 25.8953 48.5845 26.3017 48.5845 26.8038C48.5845 27.3626 48.8777 27.757 49.4671 27.9871C50.0623 28.2113 51.0059 28.4234 52.3008 28.6207C53.7467 28.8777 54.9312 29.1436 55.8545 29.4215C56.7749 29.7024 57.5762 30.2164 58.2585 30.9635C58.9379 31.7046 59.2805 32.7415 59.2805 34.0713C59.2805 35.2039 58.9495 36.211 58.2933 37.0955C57.6343 37.9741 56.6732 38.6554 55.4132 39.1395C54.1502 39.6236 52.6521 39.8687 50.9188 39.8687Z" fill="#1B2123"/>
<path d="M71.3532 38.7091C70.8422 39.1006 70.2179 39.3904 69.4834 39.5817C68.7546 39.7729 67.9852 39.8686 67.1723 39.8686C65.0645 39.8686 63.4357 39.3157 62.283 38.2071C61.1362 37.1014 60.5642 35.4757 60.5642 33.3301V25.8474H57.8351V21.7833H60.5642V17.3486H65.6974V21.7833H70.0989V25.8474H65.6974V33.2584C65.6974 34.0324 65.8861 34.6271 66.2665 35.0394C66.6526 35.4548 67.1955 35.661 67.8923 35.661C68.7053 35.661 69.3963 35.4399 69.9711 34.9916L71.3532 38.7091Z" fill="#1B2123"/>
<path d="M76.6451 23.7796C77.2549 22.904 78.0794 22.2436 79.1188 21.7953C80.164 21.3411 81.366 21.114 82.7306 21.114V25.9909C82.1557 25.9431 81.7725 25.9192 81.5809 25.9192C80.1089 25.9192 78.9562 26.3436 78.1201 27.1863C77.2897 28.032 76.8774 29.302 76.8774 30.9994V39.5937H71.7443V21.377H76.6451V23.7796Z" fill="#1B2123"/>
<path d="M91.8395 39.8687C89.9726 39.8687 88.3003 39.4712 86.8225 38.6733C85.3418 37.8695 84.1862 36.7578 83.3501 35.3384C82.5197 33.913 82.1074 32.2963 82.1074 30.4854C82.1074 28.6864 82.5197 27.0757 83.3501 25.6562C84.1862 24.2308 85.3418 23.1192 86.8225 22.3213C88.3003 21.5174 89.9726 21.114 91.8395 21.114C93.7035 21.114 95.37 21.5174 96.8333 22.3213C98.3024 23.1192 99.4521 24.2308 100.282 25.6562C101.119 27.0757 101.537 28.6864 101.537 30.4854C101.537 32.2963 101.119 33.913 100.282 35.3384C99.4521 36.7578 98.3024 37.8695 96.8333 38.6733C95.37 39.4712 93.7035 39.8687 91.8395 39.8687ZM91.8395 35.5296C93.1547 35.5296 94.2348 35.0754 95.0797 34.167C95.9216 33.2525 96.3455 32.0243 96.3455 30.4854C96.3455 28.9553 95.9216 27.7331 95.0797 26.8157C94.2348 25.9013 93.1547 25.4411 91.8395 25.4411C90.5214 25.4411 89.4355 25.9013 88.5761 26.8157C87.7225 27.7331 87.2986 28.9553 87.2986 30.4854C87.2986 32.0243 87.7225 33.2525 88.5761 34.167C89.4355 35.0754 90.5214 35.5296 91.8395 35.5296Z" fill="#1B2123"/>
<path d="M112.791 15.9023C114.835 15.9023 116.606 16.255 118.11 16.9542C119.611 17.6475 120.764 18.6396 121.571 19.9306C122.384 21.2156 122.791 22.7366 122.791 24.4967C122.791 26.2359 122.384 27.754 121.571 29.0509C120.764 30.3508 119.611 31.343 118.11 32.0273C116.606 32.7146 114.835 33.0553 112.791 33.0553H108.158V39.5937H102.827V15.9023H112.791ZM112.501 28.5967C114.095 28.5967 115.311 28.2441 116.148 27.5329C116.984 26.8157 117.402 25.8056 117.402 24.4967C117.402 23.1669 116.984 22.1479 116.148 21.4367C115.311 20.7195 114.095 20.3609 112.501 20.3609H108.158V28.5967H112.501Z" fill="#F97316"/>
<path d="M135.573 39.8889C133.181 39.8889 131.024 39.36 129.105 38.2992C127.191 37.2413 125.69 35.777 124.599 33.9123C123.513 32.0476 122.973 29.9558 122.973 27.6369C122.973 25.3119 123.513 23.2201 124.599 21.3614C125.69 19.4967 127.191 18.0354 129.105 16.9745C131.024 15.9167 133.181 15.3848 135.573 15.3848C137.966 15.3848 140.114 15.9167 142.019 16.9745C143.929 18.0354 145.433 19.4967 146.525 21.3614C147.622 23.2201 148.174 25.3119 148.174 27.6369C148.174 29.9558 147.622 32.0476 146.525 33.9123C145.433 35.777 143.929 37.2413 142.019 38.2992C140.114 39.36 137.966 39.8889 135.573 39.8889ZM135.573 35.2152C136.935 35.2152 138.163 34.8985 139.255 34.259C140.352 33.6135 141.212 32.717 141.833 31.5695C142.46 30.416 142.774 29.1041 142.774 27.6369C142.774 26.1726 142.46 24.8637 141.833 23.7162C141.212 22.5627 140.352 21.6602 139.255 21.0147C138.163 20.3693 136.935 20.0465 135.573 20.0465C134.218 20.0465 132.989 20.3693 131.892 21.0147C130.792 21.6602 129.929 22.5627 129.302 23.7162C128.681 24.8637 128.373 26.1726 128.373 27.6369C128.373 29.1041 128.681 30.416 129.302 31.5695C129.929 32.717 130.792 33.6135 131.892 34.259C132.989 34.8985 134.218 35.2152 135.573 35.2152Z" fill="#F97316"/>
<path d="M157.221 40C155.401 40 153.639 39.749 151.937 39.247C150.242 38.739 148.877 38.0755 147.849 37.2627L149.661 33.1269C150.642 33.877 151.815 34.4776 153.18 34.9318C154.542 35.3801 155.9 35.6012 157.256 35.6012C158.772 35.6012 159.893 35.3711 160.613 34.9079C161.338 34.4477 161.704 33.8292 161.704 33.0552C161.704 32.4994 161.486 32.0332 161.054 31.6566C160.627 31.2831 160.078 30.9843 159.405 30.7602C158.737 30.539 157.837 30.291 156.699 30.0191C154.948 29.5887 153.511 29.1584 152.39 28.7281C151.275 28.2978 150.314 27.6105 149.51 26.6602C148.712 25.7129 148.314 24.4488 148.314 22.871C148.314 21.4934 148.674 20.2473 149.394 19.1296C150.12 18.015 151.211 17.1305 152.669 16.476C154.132 15.8246 155.912 15.4958 158.011 15.4958C159.48 15.4958 160.917 15.6751 162.32 16.0337C163.728 16.3923 164.959 16.9123 166.013 17.5877L164.364 21.7594C162.233 20.5162 160.107 19.8946 157.988 19.8946C156.493 19.8946 155.389 20.1427 154.678 20.6357C153.964 21.1318 153.61 21.7833 153.61 22.5961C153.61 23.4089 154.019 24.0155 154.841 24.413C155.659 24.8044 156.914 25.1959 158.603 25.5844C160.36 26.0087 161.797 26.4331 162.912 26.8634C164.033 27.2937 164.994 27.9721 165.792 28.8954C166.596 29.8218 167 31.0709 167 32.6488C167 34.0055 166.631 35.2426 165.897 36.3662C165.159 37.4839 164.056 38.3684 162.587 39.0199C161.115 39.6713 159.326 40 157.221 40Z" fill="#F97316"/>
<mask id="mask0_628_3348" style="mask-type:luminance" maskUnits="userSpaceOnUse" x="0" y="0" width="29" height="30">
<path d="M0 0H28.2439V29.8353H0V0Z" fill="white"/>
</mask>
<g mask="url(#mask0_628_3348)">
<mask id="mask1_628_3348" style="mask-type:luminance" maskUnits="userSpaceOnUse" x="-3" y="-6" width="37" height="41">
<path d="M-2.32556 22.0507L15.6869 -5.58228L33.2784 6.56522L15.263 34.1982L-2.32556 22.0507Z" fill="white"/>
</mask>
<g mask="url(#mask1_628_3348)">
<mask id="mask2_628_3348" style="mask-type:luminance" maskUnits="userSpaceOnUse" x="-3" y="-6" width="37" height="41">
<path d="M-2.32556 22.0507L15.6869 -5.58228L33.2784 6.56522L15.263 34.1982L-2.32556 22.0507Z" fill="white"/>
</mask>
<g mask="url(#mask2_628_3348)">
<path d="M25.4945 18.0701C22.0917 19.5195 18.5961 21.8354 15.6434 24.5936C14.1772 25.9653 12.8794 27.4116 11.7906 28.8908L11.2361 29.6469L8.92208 24.3097C7.89719 25.018 5.64708 26.2462 3.2489 25.4722C2.08465 25.0986 1.31236 24.492 0.88266 23.6194C0.319407 22.4779 -0.435469 19.1668 2.61887 16.5461C4.85156 14.4602 8.39076 13.9761 9.12822 13.8955C9.3692 13.7401 9.58695 13.5697 9.79309 13.3755C10.6205 12.6045 11.1112 11.5646 11.6832 10.3633C12.4961 8.64798 13.5094 6.50834 15.9134 4.26113C16.2095 3.98322 16.526 3.70829 16.8512 3.43934C19.6965 1.09053 21.9698 0.244837 23.8018 0.848477C24.6148 1.11444 26.7226 2.58767 27.4746 5.37876C27.9072 6.85798 27.4485 8.42385 26.6326 9.9957C26.2465 10.7368 25.5061 11.8873 24.1531 13.1514C23.7844 13.495 23.4505 13.7729 23.1979 13.9731L26.1594 17.7862L25.4945 18.0701Z" fill="white"/>
</g>
</g>
</g>
<mask id="mask3_628_3348" style="mask-type:luminance" maskUnits="userSpaceOnUse" x="0" y="0" width="28" height="30">
<path d="M0.743286 0.764893H27.5007V29.0702H0.743286V0.764893Z" fill="white"/>
</mask>
<g mask="url(#mask3_628_3348)">
<mask id="mask4_628_3348" style="mask-type:luminance" maskUnits="userSpaceOnUse" x="-3" y="-6" width="37" height="41">
<path d="M-2.32556 22.0507L15.6869 -5.58228L33.2784 6.56522L15.263 34.1982L-2.32556 22.0507Z" fill="white"/>
</mask>
<g mask="url(#mask4_628_3348)">
<mask id="mask5_628_3348" style="mask-type:luminance" maskUnits="userSpaceOnUse" x="-3" y="-6" width="37" height="41">
<path d="M-2.32556 22.0507L15.6869 -5.58228L33.2784 6.56522L15.263 34.1982L-2.32556 22.0507Z" fill="white"/>
</mask>
<g mask="url(#mask5_628_3348)">
<path d="M26.6878 5.55824C27.1581 7.16296 26.743 8.68401 26.0171 9.97198C24.7164 12.2849 22.414 13.8598 22.414 13.8598L25.2797 17.5503C23.9644 18.1092 22.6376 18.7965 21.3311 19.5854C17.5306 21.8834 13.9217 25.06 11.3551 28.5473L9.13985 23.4403C9.13985 23.4403 6.34972 25.8877 3.4057 24.9345C1.53594 24.3308 0.438463 22.3137 1.38786 19.2148C2.78438 15.1029 9.31115 14.4425 9.31115 14.4425C12.5629 12.4583 11.6977 8.41805 17.1967 3.88179C22.6753 -0.639526 25.3784 1.07577 26.6878 5.55824Z" fill="#F97316"/>
</g>
</g>
</g>
<mask id="mask6_628_3348" style="mask-type:luminance" maskUnits="userSpaceOnUse" x="2" y="21" width="7" height="5">
<path d="M2.97302 21.4202H8.91912V25.2452H2.97302V21.4202Z" fill="white"/>
</mask>
<g mask="url(#mask6_628_3348)">
<mask id="mask7_628_3348" style="mask-type:luminance" maskUnits="userSpaceOnUse" x="-3" y="-6" width="37" height="41">
<path d="M-2.32556 22.0507L15.6869 -5.58228L33.2784 6.56522L15.263 34.1982L-2.32556 22.0507Z" fill="white"/>
</mask>
<g mask="url(#mask7_628_3348)">
<mask id="mask8_628_3348" style="mask-type:luminance" maskUnits="userSpaceOnUse" x="-3" y="-6" width="37" height="41">
<path d="M-2.32556 22.0507L15.6869 -5.58228L33.2784 6.56522L15.263 34.1982L-2.32556 22.0507Z" fill="white"/>
</mask>
<g mask="url(#mask8_628_3348)">
<path d="M8.80012 23.5298C8.80012 23.5298 6.57615 24.6743 5.26382 24.5339C3.91666 24.3875 3.38825 23.7569 3.64955 23.733C3.91086 23.7121 5.18834 24.1245 5.76611 23.5119C6.34678 22.8963 4.84574 22.469 5.55997 22.2418C6.27129 22.0147 7.29908 22.2239 7.95234 22.5676C8.6027 22.9082 8.80012 23.5298 8.80012 23.5298Z" fill="#F97316"/>
</g>
</g>
</g>
<mask id="mask9_628_3348" style="mask-type:luminance" maskUnits="userSpaceOnUse" x="11" y="6" width="6" height="8">
<path d="M11.1489 6.88501H16.3518V13.7701H11.1489V6.88501Z" fill="white"/>
</mask>
<g mask="url(#mask9_628_3348)">
<mask id="mask10_628_3348" style="mask-type:luminance" maskUnits="userSpaceOnUse" x="-3" y="-6" width="37" height="41">
<path d="M-2.32556 22.0507L15.6869 -5.58228L33.2784 6.56522L15.263 34.1982L-2.32556 22.0507Z" fill="white"/>
</mask>
<g mask="url(#mask10_628_3348)">
<mask id="mask11_628_3348" style="mask-type:luminance" maskUnits="userSpaceOnUse" x="-3" y="-6" width="37" height="41">
<path d="M-2.32556 22.0507L15.6869 -5.58228L33.2784 6.56522L15.263 34.1982L-2.32556 22.0507Z" fill="white"/>
</mask>
<g mask="url(#mask11_628_3348)">
<path d="M11.1635 13.4234C11.1635 13.4234 12.5948 12.4014 13.5645 10.4231C14.5343 8.44485 15.4343 7.21964 15.8408 7.68283C16.2501 8.14303 16.2792 9.34134 14.7752 11.1284C13.2713 12.9184 11.1635 13.4234 11.1635 13.4234Z" fill="#F97316"/>
</g>
</g>
</g>
<mask id="mask12_628_3348" style="mask-type:luminance" maskUnits="userSpaceOnUse" x="11" y="6" width="16" height="14">
<path d="M11.1489 6.12012H26.7574V19.8903H11.1489V6.12012Z" fill="white"/>
</mask>
<g mask="url(#mask12_628_3348)">
<mask id="mask13_628_3348" style="mask-type:luminance" maskUnits="userSpaceOnUse" x="-3" y="-6" width="37" height="41">
<path d="M-2.32556 22.0509L15.6869 -5.58203L33.2784 6.56546L15.263 34.1984L-2.32556 22.0509Z" fill="white"/>
</mask>
<g mask="url(#mask13_628_3348)">
<mask id="mask14_628_3348" style="mask-type:luminance" maskUnits="userSpaceOnUse" x="-3" y="-6" width="37" height="41">
<path d="M-2.32556 22.0509L15.6869 -5.58203L33.2784 6.56546L15.263 34.1984L-2.32556 22.0509Z" fill="white"/>
</mask>
<g mask="url(#mask14_628_3348)">
<path d="M26.2988 7.99377C26.293 8.0386 26.142 9.21301 26.0171 9.97503C24.7135 12.285 22.4141 13.8598 22.4141 13.8598L25.2797 17.5504C23.9645 18.1092 22.6376 18.7965 21.3311 19.5854C21.5431 19.1342 21.5982 18.5664 21.2876 17.8761C20.3556 15.8202 19.3481 14.9028 19.3481 14.9028C19.3481 14.9028 18.1984 17.6311 16.5899 18.7218C14.996 19.8036 11.509 19.4032 11.4539 19.3972C11.4829 19.3792 13.1146 18.4618 13.8695 17.655C14.6301 16.8392 14.6301 16.8392 14.6301 16.8392C13.3846 16.3431 12.2291 15.8381 12.9259 15.1299C12.9259 15.1299 16.8686 15.6767 20.0014 11.6096C23.1341 7.54553 22.0047 5.81828 23.5028 6.1709C25.001 6.52352 24.1735 10.2888 25.0271 9.8017C25.8662 9.32059 26.2842 8.0386 26.2988 7.99377Z" fill="#F97316"/>
</g>
</g>
</g>
<mask id="mask15_628_3348" style="mask-type:luminance" maskUnits="userSpaceOnUse" x="7" y="11" width="8" height="5">
<path d="M7.43262 11.4751H14.122V15.3001H7.43262V11.4751Z" fill="white"/>
</mask>
<g mask="url(#mask15_628_3348)">
<mask id="mask16_628_3348" style="mask-type:luminance" maskUnits="userSpaceOnUse" x="-3" y="-6" width="37" height="41">
<path d="M-2.32556 22.0507L15.6869 -5.58228L33.2784 6.56522L15.263 34.1982L-2.32556 22.0507Z" fill="white"/>
</mask>
<g mask="url(#mask16_628_3348)">
<mask id="mask17_628_3348" style="mask-type:luminance" maskUnits="userSpaceOnUse" x="-3" y="-6" width="37" height="41">
<path d="M-2.32556 22.0507L15.6869 -5.58228L33.2784 6.56522L15.263 34.1982L-2.32556 22.0507Z" fill="white"/>
</mask>
<g mask="url(#mask17_628_3348)">
<path d="M7.44421 14.7262C7.44421 14.7262 9.63625 14.6425 11.3521 13.9791C13.0709 13.3127 13.8723 11.8335 13.8723 11.8335C13.8723 11.8335 12.3451 12.9451 11.1634 13.4233C9.98176 13.9014 9.71465 13.9403 9.71465 13.9403L7.44421 14.7262Z" fill="white"/>
</g>
</g>
</g>
<mask id="mask18_628_3348" style="mask-type:luminance" maskUnits="userSpaceOnUse" x="20" y="12" width="4" height="4">
<path d="M20.8113 12.24H23.7843V15.3H20.8113V12.24Z" fill="white"/>
</mask>
<g mask="url(#mask18_628_3348)">
<mask id="mask19_628_3348" style="mask-type:luminance" maskUnits="userSpaceOnUse" x="-3" y="-6" width="37" height="41">
<path d="M-2.32568 22.0507L15.6868 -5.58228L33.2783 6.56522L15.2629 34.1982L-2.32568 22.0507Z" fill="white"/>
</mask>
<g mask="url(#mask19_628_3348)">
<mask id="mask20_628_3348" style="mask-type:luminance" maskUnits="userSpaceOnUse" x="-3" y="-6" width="37" height="41">
<path d="M-2.32568 22.0507L15.6868 -5.58228L33.2783 6.56522L15.2629 34.1982L-2.32568 22.0507Z" fill="white"/>
</mask>
<g mask="url(#mask20_628_3348)">
<path d="M21.5167 12.261C21.5603 12.6256 22.411 13.8299 23.0816 14.7144L23.1978 13.9733C22.6926 13.3547 22.2774 12.7959 21.9319 12.2849L21.5167 12.261Z" fill="white"/>
</g>
</g>
</g>
<mask id="mask21_628_3348" style="mask-type:luminance" maskUnits="userSpaceOnUse" x="14" y="7" width="10" height="10">
<path d="M14.1219 7.65015H23.7844V16.0652H14.1219V7.65015Z" fill="white"/>
</mask>
<g mask="url(#mask21_628_3348)">
<mask id="mask22_628_3348" style="mask-type:luminance" maskUnits="userSpaceOnUse" x="-3" y="-6" width="37" height="41">
<path d="M-2.32556 22.0509L15.6869 -5.58203L33.2784 6.56546L15.263 34.1984L-2.32556 22.0509Z" fill="white"/>
</mask>
<g mask="url(#mask22_628_3348)">
<mask id="mask23_628_3348" style="mask-type:luminance" maskUnits="userSpaceOnUse" x="-3" y="-6" width="37" height="41">
<path d="M-2.32556 22.0509L15.6869 -5.58203L33.2784 6.56546L15.263 34.1984L-2.32556 22.0509Z" fill="white"/>
</mask>
<g mask="url(#mask23_628_3348)">
<path d="M23.6828 8.00879C23.6828 8.00879 23.767 10.3457 20.6256 12.9395C17.4841 15.5334 14.8159 15.9547 14.8159 15.9547C14.8159 15.9547 17.5915 16.0503 20.6285 13.8689C22.5069 12.4554 22.0076 12.826 22.9279 11.538C23.8483 10.25 23.6828 8.00879 23.6828 8.00879Z" fill="white"/>
</g>
</g>
</g>
<mask id="mask24_628_3348" style="mask-type:luminance" maskUnits="userSpaceOnUse" x="11" y="14" width="7" height="7">
<path d="M11.1489 14.5352H17.8383V20.6552H11.1489V14.5352Z" fill="white"/>
</mask>
<g mask="url(#mask24_628_3348)">
<mask id="mask25_628_3348" style="mask-type:luminance" maskUnits="userSpaceOnUse" x="-3" y="-6" width="37" height="41">
<path d="M-2.32556 22.0507L15.6869 -5.58228L33.2784 6.56522L15.263 34.1982L-2.32556 22.0507Z" fill="white"/>
</mask>
<g mask="url(#mask25_628_3348)">
<mask id="mask26_628_3348" style="mask-type:luminance" maskUnits="userSpaceOnUse" x="-3" y="-6" width="37" height="41">
<path d="M-2.32556 22.0507L15.6869 -5.58228L33.2784 6.56522L15.263 34.1982L-2.32556 22.0507Z" fill="white"/>
</mask>
<g mask="url(#mask26_628_3348)">
<path d="M16.494 15.6048C15.8495 17.4815 13.6458 19.397 11.2679 19.89C11.2679 19.89 12.2057 20.2068 14.2729 19.128C16.343 18.0463 17.5305 15.2283 17.5305 15.2283L16.494 15.6048Z" fill="white"/>
</g>
</g>
</g>
<mask id="mask27_628_3348" style="mask-type:luminance" maskUnits="userSpaceOnUse" x="5" y="22" width="5" height="3">
<path d="M5.94604 22.1853H9.66235V24.4803H5.94604V22.1853Z" fill="white"/>
</mask>
<g mask="url(#mask27_628_3348)">
<mask id="mask28_628_3348" style="mask-type:luminance" maskUnits="userSpaceOnUse" x="-3" y="-6" width="37" height="41">
<path d="M-2.32568 22.0509L15.6868 -5.58203L33.2783 6.56546L15.2629 34.1984L-2.32568 22.0509Z" fill="white"/>
</mask>
<g mask="url(#mask28_628_3348)">
<mask id="mask29_628_3348" style="mask-type:luminance" maskUnits="userSpaceOnUse" x="-3" y="-6" width="37" height="41">
<path d="M-2.32568 22.0509L15.6868 -5.58203L33.2783 6.56546L15.2629 34.1984L-2.32568 22.0509Z" fill="white"/>
</mask>
<g mask="url(#mask29_628_3348)">
<path d="M9.3691 24.1278C9.34587 23.9634 9.23845 23.4345 8.90456 23.055C8.57068 22.6755 6.67188 22.5051 6.67188 22.5051C6.67188 22.5051 7.92323 22.9683 8.32389 23.2851C8.72455 23.6018 8.92198 24.3101 8.92198 24.3101L9.3691 24.1278Z" fill="white"/>
</g>
</g>
</g>
</svg>
